/* XPM */
static char *delosmobj[] = {
/* columns rows colors chars-per-pixel */
"64 64 6 1",
"  c #CBCBCB",
". c LightGray",
"X c gray89",
"o c gray94",
"O c gray100",
"+ c None",
/* pixels */
"++++++++++++++++++++++++++++++++++++++++++++++++++++++++++++++++",
"++++++++++++++++++++++++++++++++++++++++++++++++++++++++++++++++",
"++++++++++++++++++++++++++++++++++++++++++++++++++++++++++++++++",
"++++++++++++++++++++++++++++++++++++++++++++++++++++++++++++++++",
"++++++++++++++++++++++++++++++++++++++++++++++++++++++++++++++++",
"++++++++++++++++++++++++++++++++++++++++++++++++++++++++++++++++",
"++++++++++++++++++++++++++++++++++++++++++++++++++++++++++++++++",
"++++++++++++++++++++++++++++++++++++++++++++++++++++++++++++++++",
"++++++++++++++++++++++++OOOOO++++++OOO++++++++++++++++++++++++++",
"+++++++++++++++++++++OOOOOOOOOOOOOOOOOOOOO++++++++++++++++++++++",
"++++++++++++++++++++OOOO++++++OOOOO+OOOOOOOO++++++++++++++++++++",
"+++++++++++++++++++OO+++++OOOOOOOOOOO++OOOOOO+++++++++++++++++++",
"++++++++++++++++++++OO+OO+++++++++OOOOO+++OOOO++++++++++++++++++",
"++++++++++++++++++++OOO+++++++++OoO+OOOOOOOOOOO+++++++++++++++++",
"+++++++++++++++++++++OOO+++++OX +++++O++OOOOOOOOO+++++++++++++++",
"++++++++++++++++++++++OOO++O.++++++++O+++O++OO+OOOO+++++++++++++",
"++++++++++++++++++++OOOOOOOO++++++++O++++O++++O++OOO++++++++++++",
"++++++++++++++++OOOOOOOOOOOOOO+++++OO+++++O++++O++OOO+++++++++++",
"+++++++++++++OOOOOO++++++++OOOOO+++O++++++O+++++O+++OO++++++++++",
"++++++++++++OOOO++++++++++++++OOOOOO+++++++++++++O++OO++++++++++",
"+++++++++++OOO+++++++++++++++++++OOOOOOO+++O++++++OOOO++++++++++",
"+++++++++++OO+++++++++++++++++++++++OOOOOOOOOOOOOOOOO+++++++++++",
"+++++++++++OOO+++++++++++++++++++++++++++OOOOOOOOOO+++++++++++++",
"+++++++++++OOOOO++++++++++++++++++++++++++OOOOO+++++++++++++++++",
"+++++++++++OOOOOOOO++++++++++++++++++++OOOOOOOO+++++++++++++++++",
"+++++++++++OO++OOOOOOOOOOOOOOOOOOOOOOOOOOOO++OO+++++++++++++++++",
"+++++++++++OO++O+++OOOOOOOOOOOOOOOOOOOO+++O++OO+++++++++++++++++",
"+++++++++++OO++O+++++O++++++++O++++++O++++O++OO+++++++++++++++++",
"+++++++++++OO++O+++++O++++++++O++++++O++++O++OO+++++++++++++++++",
"+++++++++++OO++O+++++O++++++++O++++++O++++O++OO+++++++++++++++++",
"+++++++++++OO++O+++++O++++++++O++++++O++++O++OO+++++++++++++++++",
"+++++++++++OO++O+++++O++++++++O++++++O++++O++OO+++++++++++++++++",
"+++++++++++OO++O+++++O++++++++O++++++O++++O++OO+++++++++++++++++",
"+++++++++++OO++O+++++O++++++++O++++++O++++O++OO+++++++++++++++++",
"+++++++++++OO++O+++++O++++++++O++++++O++++O++OO+++++++++++++++++",
"+++++++++++OO++O+++++O++++++++O++++++O++++O++OO+++++++++++++++++",
"+++++++++++OO++O+++++O++++++++O++++++O++++O++OO+++++++++++++++++",
"+++++++++++OO++O+++++O++++++++O++++++O++++O++OO+++++++++++++++++",
"+++++++++++OO++O+++++O++++++++O++++++O++++O++OO+++++++++++++++++",
"+++++++++++OO++O+++++O++++++++O++++++O++++O++OO+++++++++++++++++",
"+++++++++++OO++O+++++O++++++++O++++++O++++O++OO+++++++++++++++++",
"+++++++++++OO++O+++++O++++++++O++++++O++++O++OO+++++++++++++++++",
"+++++++++++OO++O+++++O++++++++O++++++O++++O++OO+++++++++++++++++",
"+++++++++++OO++O+++++O++++++++O++++++O++++O++OO+++++++++++++++++",
"+++++++++++OO++O+++++O++++++++O++++++O++++O++OO+++++++++++++++++",
"+++++++++++OO++O+++++O++++++++O++++++O++++O++OO+++++++++++++++++",
"+++++++++++OO++O+++++O++++++++O++++++O++++O++OO+++++++++++++++++",
"+++++++++++OO++O+++++O++++++++O++++++O++++O++OO+++++++++++++++++",
"+++++++++++OO++O+++++O++++++++O++++++O++++O++OO+++++++++++++++++",
"+++++++++++OO++O+++++O++++++++O++++++O++++O++OO+++++++++++++++++",
"+++++++++++OO++O+++++O++++++++O++++++O++++O++OO+++++++++++++++++",
"+++++++++++OOO+O+++++O++++++++O++++++O++++OOOO++++++++++++++++++",
"++++++++++++OOOO+++++O++++++++O++++++O++++OOO+++++++++++++++++++",
"++++++++++++++OOOOOO+O++++++++O++++++OOOOOOO++++++++++++++++++++",
"++++++++++++++++OOOOOOOOOOOOOOOOOOOOOOOOO+++++++++++++++++++++++",
"+++++++++++++++++++++OOOOOOOOOOOOOOOO+++++++++++++++++++++++++++",
"++++++++++++++++++++++++++++++++++++++++++++++++++++++++++++++++",
"++++++++++++++++++++++++++++++++++++++++++++++++++++++++++++++++",
"++++++++++++++++++++++++++++++++++++++++++++++++++++++++++++++++",
"++++++++++++++++++++++++++++++++++++++++++++++++++++++++++++++++",
"++++++++++++++++++++++++++++++++++++++++++++++++++++++++++++++++",
"++++++++++++++++++++++++++++++++++++++++++++++++++++++++++++++++",
"++++++++++++++++++++++++++++++++++++++++++++++++++++++++++++++++",
"++++++++++++++++++++++++++++++++++++++++++++++++++++++++++++++++"
};
