/* XPM */
static char *end_route[] = {
/* columns rows colors chars-per-pixel */
"64 64 16 1",
"  c #FF7D00",
". c #FF8510",
"X c #FF8D20",
"o c #FF9530",
"O c #FF9E40",
"+ c #FFA650",
"@ c #FFAE60",
"# c #FFB670",
"$ c #FFBE80",
"% c #FFC68F",
"& c #FFDFBF",
"* c #FFE7CF",
"= c #FFEFDF",
"- c #FFF7EF",
"; c gray100",
": c None",
/* pixels */
"::::::::::::::::::::::::::::::::::::::::::::::::::::::::::::::::",
"::::::::::::::::::::::::::::::::::::::::::::::::::::::::::::::::",
"::::::::::::::::::::::::::::::::::::::::::::::::::::::::::::::::",
"::::::::::::::::::::::::::::::::::::::::::::::::::::::::::::::::",
"::::::::::::::::::::::::::::::::::::::::::::::::::::::::::::::::",
"::::::::::::::::::::::::::::::::::::::::::::::::::::::::::::::::",
"::::::::::::::::::::::::::::::::::::::::::::;;;;;;::::::::::::::",
":::::::::::::::::::::::::::::::::::::::::;;;;;;;;;;;;:::::::::::",
"::::::::::::::::::::::::::::::::::::::::;;;*@o  o@&;;;::::::::::",
":::::::::::::::::::::::::::::::::::::::;;-+        O=;;:::::::::",
"::::::::::::::::::::::::::::::::::::::;;*.          .*;;::::::::",
":::::::::::::::::::::::::::::::::::::;;-.            .=;;:::::::",
":::::::::::::::::::::::::::::::::::::;;@              O;;:::::::",
":::::::::::::::::::::::::::::::::::::;=                &;:::::::",
"::::::::::::::::::::::::::::::::::::;;#                @;;::::::",
"::::::::::::::::::::::::::::::::::::;;O                o;;::::::",
"::::::::::::::::::::::::::::::::::::;;.                 ;;::::::",
"::::::::::::::::::::::::::::::::::::;;X                 ;;::::::",
"::::::::::::::::::::::::::::::::::::;;O                o;;::::::",
"::::::::::::::::::::::::::::::::::::;;$                #;;::::::",
":::::::::::::::::::::::::::::::::::::;=                *;:::::::",
":::::::::::::::::::::::::::::::::::::;;#              +;;:::::::",
":::::::::::::::::::::::::::::::::::::;;-o            .-;;:::::::",
":::::::::::::::::::::::::::::::::;;;;;;;-o          X*;;::::::::",
":::::::::::::::::::::::::::::;;;;;;;;;;;;-#        @-;;:::::::::",
"::::::::::::::::::::::::;;;;;;;;;;;;;;;;;;;=%OXXO$=;;;::::::::::",
":::::::::::::::::::;;;;;;;;;;;;;;;;;;;;;;;;;;;;;;;;;;:::::::::::",
"::::::::::::::::;;;;;;;;;;;;;;;;;;;;;;;;;:::;;;;;;::::::::::::::",
":::::::::::::::::;;;;;;;;;;;;;;;;;;;;;;;;:::::::::::::::::::::::",
"::::::::::::::::::;;;;;;;;;;;;;;;;;;;;;;;:::::::::::::::::::::::",
":::::::::::::::::::;;;;;;;;;;;;;;;;;;;;;;:::::::::::::::::::::::",
"::::::::::::::::::::;;;;;;;;;;;;;;;;;;;;::::::::::::::::::::::::",
":::::::::::::::::::::;;;;;;;;;;;;;;;;;;;::::::::::::::::::::::::",
"::::::::::::::::::::::;;;;;;;;;;;;;;;;;;::::::::::::::::::::::::",
"::::::::::::::::::::::;;;;;;;;;;;;;;;;;;::::::::::::::::::::::::",
"::::::::::::::::::::::;;;;;;;;;;;;;;;;;:::::::::::::::::::::::::",
":::::::::::::::::::::;;;;;;;;;;;;;;;;;;:::::::::::::::::::::::::",
"::::::::::::::::::::;;;;;;;;;;;;;;;;;;;:::::::::::::::::::::::::",
":::::::::::::::::::;;;;;;;;;;;;;;;;;;;;:::::::::::::::::::::::::",
"::::::::::::::::::;;;;;;;;;;;;;;;;;;;;;:::::::::::::::::::::::::",
":::::::::::::::::::;;;;;;;;;;;;;;;;;;;::::::::::::::::::::::::::",
"::::::::::::::::::::;;;;;;;;;;;;;;;;;;::::::::::::::::::::::::::",
":::::::::::::::::::::;;;;;;;:::;;;;;;;::::::::::::::::::::::::::",
"::::::::::::::::::::::;;;;;:::::;;;;;;::::::::::::::::::::::::::",
":::::::::::::::::::::::;;;:::::::;;;;;::::::::::::::::::::::::::",
"::::::::::::::::::::::::;:::::::::;;;:::::::::::::::::::::::::::",
":::::::::::::::::::::::::::::::::::;;:::::::::::::::::::::::::::",
"::::::::::::::::::::::::::::::::::::;:::::::::::::::::::::::::::",
"::::::::::::::::::::::::::::::::::::::::::::::::::::::::::::::::",
"::::::::::::::::::::::::::::::::::::::::::::::::::::::::::::::::",
"::::::::::::::::::::::::::::::::::::::::::::::::::::::::::::::::",
"::::::::::::::::::::::::::::::::::::::::::::::::::::::::::::::::",
"::::::::::::::::::::::::::::::::::::::::::::::::::::::::::::::::",
"::::::::::::::::::::::::::::::::::::::::::::::::::::::::::::::::",
"::::::::::::::::::::::::::::::::::::::::::::::::::::::::::::::::",
"::::::::::::::::::::::::::::::::::::::::::::::::::::::::::::::::",
"::::::::::::::::::::::::::::::::::::::::::::::::::::::::::::::::",
"::::::::::::::::::::::::::::::::::::::::::::::::::::::::::::::::",
"::::::::::::::::::::::::::::::::::::::::::::::::::::::::::::::::",
"::::::::::::::::::::::::::::::::::::::::::::::::::::::::::::::::",
"::::::::::::::::::::::::::::::::::::::::::::::::::::::::::::::::",
"::::::::::::::::::::::::::::::::::::::::::::::::::::::::::::::::",
"::::::::::::::::::::::::::::::::::::::::::::::::::::::::::::::::",
"::::::::::::::::::::::::::::::::::::::::::::::::::::::::::::::::"
};
