/* XPM */
static char *newosmway[] = {
/* columns rows colors chars-per-pixel */
"64 64 20 1",
"  c #FF7D00",
". c #FF8510",
"X c #FF8611",
"o c #FF8D20",
"O c #FF932B",
"+ c #FF9A39",
"@ c #FF9E40",
"# c #FFAE60",
"$ c #FFB166",
"% c #FFBE80",
"& c #FFCB99",
"* c #FFD6AF",
"= c #FFDCB9",
"- c #FFDFBF",
"; c #FFE7CF",
": c #FFE9D5",
"> c #FFF7EF",
", c #FEFEFE",
"< c gray100",
"1 c None",
/* pixels */
"1111111111111111111111111111111111111111111111111111111111111111",
"1111111111111111111111111111111111111111111111111111111111111111",
"1111111111111111111111111111111111111111111111111111111111111111",
"1111111111111111111111111111111111111111111111111111111111111111",
"1111111111111111111111111111111111111111111111111111111111111111",
"1111111111111111111111111111111111111111111111111111111111111111",
"1111111111111111111111111111111111111111111111111111111111111111",
"1111111111111111111111111111111111111111111111111111111111111111",
"1111111111111111111111111111111111111111111111111111111111111111",
"1111111111111111111111111111111111111111111111111111111111111111",
"1111111111111111111111111111111111111111111111111111111111111111",
"1111111111111111111111111111111111111111111111111111111111111111",
"111111111111    1111111111111111111111111111111111      11111111",
"1111111111        1111111111111111111111111111111        1111111",
"1111111111        111111111111111111111111111111    11    111111",
"111111111   1111   11111111111111111111111111111  11111   111111",
"111111111  111111  11111111111111111111111111111  111111  111111",
"111111111  111111  11111111111111111111111111111  111111  111111",
"111111111  111111  11111111111111111111111111111  11111   111111",
"111111111   1111  o<1111111111111111111111111111X  111    111111",
"1111111111        *<<<1111111111111111111111111<;.       1111111",
"11111111111      1<<<<<<1111111111111111111111<<<=      11111111",
"111111111111+##11111<<<<<<1111111111111111111<<<1111111111111111",
"1111111111111<<1111111<<<<<<111111111111111<<<<11111111111111111",
"1111111111111<<111111111<<<<<<111111111111<<<<111111111111111111",
"111111111111<<<11111111111<<<<<<111    11<<<<1111111111111111111",
"111111111111<<<1111111111111<<<<<O      @><111111111111111111111",
"111111111111<<<111111111111111<<%   11   $1111111111111111111111",
"111111111111<<<11111111111111111.  1111   1111111111111111111111",
"111111111111<<<11111111111111111  111111  1111111111111111111111",
"111111111111<<<11111111111111111  111111  1111111111111111111111",
"111111111111<<<11111111111111111  111111  1111111111111111111111",
"111111111111<<111111111111111111   1111   1111111111111111111111",
"111111111111<<1111111111111111111        11111111111111111111111",
"111111111111<<11111111111111111111      111111111111111111111111",
"111111111111<<11111111111111111111111 11111111111111111111111111",
"111111111111<<11111111111111111111111111111111111111111111111111",
"111111111111<<11111111111111111111111111111111111111111111111111",
"11111111111<<<11111111111111111111111111111111111111111111111111",
"11111111111&-:11111111111111111111111111111111111111111111111111",
"111111111      1111111111111111111111111111111111111111111111111",
"11111111        111111111111111111111111111111,,,111111111111111",
"1111111    111   11111111111111111111111111111,,,111111111111111",
"1111111   11111  11111111111111111111111111111,,,111111111111111",
"1111111  111111  11111111111111111111111111111,,,111111111111111",
"1111111  111111  11111111111111111111111111111,,,111111111111111",
"1111111   11111  11111111111111111111111111111,,,111111111111111",
"1111111    11    11111111111111111111111,,,,,,,,,,,,,,,111111111",
"11111111        111111111111111111111111,,,,,,,,,,,,,,,111111111",
"111111111      1111111111111111111111111,,,,,,,,,,,,,,,111111111",
"1111111111111111111111111111111111111111111111,,,111111111111111",
"1111111111111111111111111111111111111111111111,,,111111111111111",
"1111111111111111111111111111111111111111111111,,,111111111111111",
"1111111111111111111111111111111111111111111111,,,111111111111111",
"1111111111111111111111111111111111111111111111,,,111111111111111",
"1111111111111111111111111111111111111111111111,,,111111111111111",
"1111111111111111111111111111111111111111111111111111111111111111",
"1111111111111111111111111111111111111111111111111111111111111111",
"1111111111111111111111111111111111111111111111111111111111111111",
"1111111111111111111111111111111111111111111111111111111111111111",
"1111111111111111111111111111111111111111111111111111111111111111",
"1111111111111111111111111111111111111111111111111111111111111111",
"1111111111111111111111111111111111111111111111111111111111111111",
"1111111111111111111111111111111111111111111111111111111111111111"
};
