/* XPM */
static char *restart_way[] = {
/* columns rows colors chars-per-pixel */
"64 64 52 1",
"  c #676667",
". c #706F70",
"X c #797879",
"o c #7B7A7B",
"O c #FF7D00",
"+ c #FF8510",
"@ c #FF8D20",
"# c #FF9530",
"$ c #FF9E40",
"% c #FFA650",
"& c #FFAE60",
"* c #818081",
"= c #848283",
"- c #868586",
"; c #878586",
": c #8B8A8A",
"> c #8B8A8B",
", c #8C8B8C",
"< c #908F8F",
"1 c #959494",
"2 c #959495",
"3 c #959595",
"4 c #9B9A9B",
"5 c #9D9D9D",
"6 c #A1A0A0",
"7 c #A6A5A5",
"8 c gray65",
"9 c #ACACAC",
"0 c #B0AFAF",
"q c #B1B0B0",
"w c #B9B9B8",
"e c #FFBE80",
"r c #FFC68F",
"t c #FFCE9F",
"y c #FFD6AF",
"u c #FFDFBF",
"i c gray76",
"p c #CBCBCA",
"a c gray83",
"s c #D5D5D4",
"d c #DDDDDD",
"f c #FFE7CF",
"g c #E6E6E7",
"h c gray92",
"j c #EFEFEF",
"k c #FFF7EF",
"l c #F0EFF0",
"z c gray94",
"x c gray98",
"c c #FEFEFE",
"v c gray100",
"b c None",
/* pixels */
"bbbbbbbbbbbbbbbbbbbbbbbbbbbbbbbbbbbbbbbbbbbbbbbbbbbbbbbbbbbbbbbb",
"bbbbbbbbbbbbbbbbbbbbbbbbbbbbbbbbbbbbbbbbbbbbbbbbbbbbbbbbbbbbbbbb",
"bbbbbbbbbbbbbbbbbbbbbbbbbbbbbbbbbbbbbbbbbbbbbbbbbbbbbbbbbbbbbbbb",
"bbbbbbbbbbbbbbbbbbbbbbbbbbbbbbbbbbbbbbbbbbbbbbbbbbbbbbbbbbbbbbbb",
"bbbbbbbbbbbbbbbbbbbbbbbbbbbbbbbbbbbbbbbbbbbbbbbbbbbbbbbbbbbbbbbb",
"bbbbbbbbbbbbbbbbbbbbbbbbbbbbbbbbbbbbbbbbbbbbbbbbbbbbbbbbbbbbbbbb",
"bbbbbbbbbbbbbbbbbbbbbbbbbbbbbbbbbbbbbbbbbbbbbbbbbbbbbbbbbbbbbbbb",
"bbbbbbbbbbbbbbbbbbbbbbbbbbbbbbbbbbbbbbbbbbbbbbbbbbbbbbbbbbbbbbbb",
"bbbbbbbbbbbbbbbbbbbbbbbbbbbbbbbbbbbbbbbbbbbbbbbbbbbbbbbbbbbbbbbb",
"bbbbbbbbbbbbbbbbbbbbbbbbbbbbbbbbbbbbbbbbbbbbbbbbbbbbbbbbbbbbbbbb",
"bbbbbbbbbbbbbbbbbbbbbbbbbbbbbbbbbbbbbbbbbbbbbbbbbbbbbbbbbbbbbbbb",
"bbbbbbbbbbbbbbbbbbbbbbbbbbbbbbbbbbbbbbbbbbbbbbcccbbbbbbbbbbbbbbb",
"bbbbbbbbbbbbbbbbbbbbbbbbbbbbbbbbbbbbbbbbbbbbbbcccbbbbbbbbbbbbbbb",
"bbbbbbbbbbbbbbbbbbbbbbbbbbbbbbbbbbbbbbbbbbbbbbcccbbbbbbbbbbbbbbb",
"bbbbbbbbbbbbbbbbbbbbbbbbbbbbbbbbbbbbbbbbbbbbbbcccbbbbbbbbbbbbbbb",
"bbbbbbbbbbbbbbbbbbbbbbbbbbbbbbbbbbbbbbbbbbbbbbcccbbbbbbbbbbbbbbb",
"bbbbbbbbbbbbbbbbbbbbbbbbbbbbbbbbbbbbbbbbbbbbbbcccbbbbbbbbbbbbbbb",
"bbbbbbbbbbbbbbbbbbbbbbbbbbbbbbbbbbbbbbbbcccccccccccccccbbbbbbbbb",
"bbbbbbbbbbbbbbbbbbbbbbbbbbbbbbbbbbbbbbbbcccccccccccccccbbbbbbbbb",
"bbbbbbbbbbbbbbbbbbbobbbbbbbbbbbbbbbbbbbbcccccccccccccccbbbbbbbbb",
"bbbbbbbbbbbbbbbbbbo*;bbbbbbbbbbbbbbbbbbbbbbbbbcccbbbbbbbbbbbbbbb",
"bbbbbbbbbbbbbbbbbb*-><3bbbbbbbbbbbbbbbbbbbbbbbcccbbbbbbbbbbbbbbb",
"bbbbbbbbbbbbbbbbbb-:<246bbbbvvvvvvbbbbbbbbbbbbcccbbbbbbbbbbbbbbb",
"bbbbbbbbbbbbbbbbbbb<24689bvvvvvvvvvvbbbbbbbbbbcccbbbbbbbbbbbbbbb",
"bbbbbbbbbbbbbbbbbbbb468qzvvkt&$$efvvvbbbbbbbbbcccbbbbbbbbbbbbbbb",
"bbbbbbbbbbbbbbbbbbbbb7qzvve+OOOOOO$fvvbbbbbbbbcccbbbbbbbbbbbbbbb",
"bbbbbbbbbbbbbbbbbbbbbbhvk$OOOOOOOOO+tvvbbbbbbbbbbbbbbbbbbbbbbbbb",
"bbbbbbbbbbbbbbbbbbbbbbvv%OOOOOOOOOOOOfvvbbbbbbbbbbbbbbbbbbbbbbbb",
"bbbbbbbbbbbbbbbbbbbbbvvtOOOOOOOOOOOOO@vvbbbbbbbbbbbbbbbbbbbbbbbb",
"bbbbbbbbbbbbbbbbbbbbbvv@OOOOOOOOOOOOOOtvvbbbbbbbbbbbbbbbbbbbbbbb",
"bbbbbbbbbbbbbbbbbbbbbvfOOOOOOOOOOOOOOO%vvbbbbbbbbbbbbbbbbbbbbbbb",
"bbbbbbbbbbbbbbbbbbbbbvrOOOOOOOOOOOOOOO@vvxjgdapbbbbbbbbbbbbbbbbb",
"bbbbbbbbbbbbbbbbbbbbvveOOOOOOOOOOOOOOOOvvxjgdapiw0851,=X. bbbbbb",
"bbbbbbbbbbbbbbbbbbbbbveOOOOOOOOOOOOOOO+vvxjgdapiw0851,=X. bbbbbb",
"bbbbbbbbbbbbbbbbbbbbbvuOOOOOOOOOOOOOOO$vvxlgdspiw0851,=X. bbbbbb",
"bbbbbbbbbbbbbbbbbbbbbvv+OOOOOOOOOOOOOOrvvxlgdspiwbbbbbbbbbbbbbbb",
"bbbbbbbbbbbbbbbbbbbbbvveOOOOOOOOOOOOO+kvbbbbbbbbbbbbbbbbbbbbbbbb",
"bbbbbbbbbbbbbbbbbbbbbbvk#OOOOOOOOOOOOyvvbbbbbbbbbbbbbbbbbbbbbbbb",
"bbbbbbbbbbbbbbbbbbbbbbvvf+OOOOOOOOOOevvbbbbbbbbbbbbbbbbbbbbbbbbb",
"bbbbbbbbbbbbbbbbbbbbbbbvvk$OOOOOOO+tvvvbbbbbbbbbbbbbbbbbbbbbbbbb",
"bbbbbbbbbbbbbbbbbbbbbbbbvvvu&#O+$rkvvvbbbbbbbbbbbbbbbbbbbbbbbbbb",
"bbbbbbbbbbbbbbbbbbbbbbbbbvvvvvvvvvvvbbbbbbbbbbbbbbbbbbbbbbbbbbbb",
"bbbbbbbbbbbbbbbbbbbbbbbbbbbvvvvvvvbbbbbbbbbbbbbbbbbbbbbbbbbbbbbb",
"bbbbbbbbbbbbbbbbbbbbbbbbbbbbbbbbbbbbbbbbbbbbbbbbbbbbbbbbbbbbbbbb",
"bbbbbbbbbbbbbbbbbbbbbbbbbbbbbbbbbbbbbbbbbbbbbbbbbbbbbbbbbbbbbbbb",
"bbbbbbbbbbbbbbbbbbbbbbbbbbbbbbbbbbbbbbbbbbbbbbbbbbbbbbbbbbbbbbbb",
"bbbbbbbbbbbbbbbbbbbbbbbbbbbbbbbbbbbbbbbbbbbbbbbbbbbbbbbbbbbbbbbb",
"bbbbbbbbbbbbbbbbbbbbbbbbbbbbbbbbbbbbbbbbbbbbbbbbbbbbbbbbbbbbbbbb",
"bbbbbbbbbbbbbbbbbbbbbbbbbbbbbbbbbbbbbbbbbbbbbbbbbbbbbbbbbbbbbbbb",
"bbbbbbbbbbbbbbbbbbbbbbbbbbbbbbbbbbbbbbbbbbbbbbbbbbbbbbbbbbbbbbbb",
"bbbbbbbbbbbbbbbbbbbbbbbbbbbbbbbbbbbbbbbbbbbbbbbbbbbbbbbbbbbbbbbb",
"bbbbbbbbbbbbbbbbbbbbbbbbbbbbbbbbbbbbbbbbbbbbbbbbbbbbbbbbbbbbbbbb",
"bbbbbbbbbbbbbbbbbbbbbbbbbbbbbbbbbbbbbbbbbbbbbbbbbbbbbbbbbbbbbbbb",
"bbbbbbbbbbbbbbbbbbbbbbbbbbbbbbbbbbbbbbbbbbbbbbbbbbbbbbbbbbbbbbbb",
"bbbbbbbbbbbbbbbbbbbbbbbbbbbbbbbbbbbbbbbbbbbbbbbbbbbbbbbbbbbbbbbb",
"bbbbbbbbbbbbbbbbbbbbbbbbbbbbbbbbbbbbbbbbbbbbbbbbbbbbbbbbbbbbbbbb",
"bbbbbbbbbbbbbbbbbbbbbbbbbbbbbbbbbbbbbbbbbbbbbbbbbbbbbbbbbbbbbbbb",
"bbbbbbbbbbbbbbbbbbbbbbbbbbbbbbbbbbbbbbbbbbbbbbbbbbbbbbbbbbbbbbbb",
"bbbbbbbbbbbbbbbbbbbbbbbbbbbbbbbbbbbbbbbbbbbbbbbbbbbbbbbbbbbbbbbb",
"bbbbbbbbbbbbbbbbbbbbbbbbbbbbbbbbbbbbbbbbbbbbbbbbbbbbbbbbbbbbbbbb",
"bbbbbbbbbbbbbbbbbbbbbbbbbbbbbbbbbbbbbbbbbbbbbbbbbbbbbbbbbbbbbbbb",
"bbbbbbbbbbbbbbbbbbbbbbbbbbbbbbbbbbbbbbbbbbbbbbbbbbbbbbbbbbbbbbbb",
"bbbbbbbbbbbbbbbbbbbbbbbbbbbbbbbbbbbbbbbbbbbbbbbbbbbbbbbbbbbbbbbb",
"bbbbbbbbbbbbbbbbbbbbbbbbbbbbbbbbbbbbbbbbbbbbbbbbbbbbbbbbbbbbbbbb"
};
