/* XPM */
static char *routestartgps[] = {
/* columns rows colors chars-per-pixel */
"64 64 17 1",
"  c #FF7D00",
". c #FF8510",
"X c #FF8D20",
"o c #FF9530",
"O c #FF9E40",
"+ c #FFA650",
"@ c #FFAE60",
"# c #FFB670",
"$ c #FFBE80",
"% c #FFC68F",
"& c #FFCE9F",
"* c #FFDFBF",
"= c #FFE7CF",
"- c #FFEFDF",
"; c #FFF7EF",
": c gray100",
"> c None",
/* pixels */
">>>>>>>>>>>>>>>>>>>>>>>>>>>>>>>>>>>>>>>>>>>>>>>>>>>>>>>>>>>>>>>>",
">>>>>>>>>>>>>>>>>>>>>>>>>>>>>>>>>>>>>>>>>>>>>>>>>>>>>>>>>>>>>>>>",
">>>>>>>>>>>>>>>>>>>>>>>>>>>>>>>>>>>>>>>>>>>>>>>>>>>>>>>>>>>>>>>>",
">>>>>>>>>>>>>>>>>>>>>>>>>>>>>>>>>>>>>>>>>>>>>>>>>>>>>>>>>>>>>>>>",
">>>>>>>>>>>>>>>>>>>>>>>>>>>>>>>>>>>>>>>>>>>>>>>>>>>>>>>>>>>>>>>>",
">>>>>>>>>>>>>>>>>>>>>>>>>>>>>>>>>>>>>>>>>>>>>>>>>>>>>>>>>>>>>>>>",
">>>>>>>>>>>>>>>>>>>>>>>>>>>:::>:>>>>>>>>>>>>>>>>>>>>>>>>>>>>>>>>",
">>>>>>>>>>>>>>>>>>>>>>>>>::>>>>:>>>>>>>>>>>>>>>>>>>>>>>>>>>>>>>>",
">>>>>>>>>>>>>>>>>>>>>>>::>>>>>>>:>>>>>>>>>>>>>>>>>>>>>>>>>>>>>>>",
">>>>>>>>>>>>>>>>>>>>>:>>>>>>>>>>:>>>>>>>>>>>>>>>>>>>>>>>>>>>>>>>",
">>>>>>>>>>>>>>>>>>>>>:>>>>>>>>>>>>>>>>>>>>>>>>>>>>>>>>>>>>>>>>>>",
">>>>>>>>>>>>>>>::::>:>>>>>>>>>>>>:>>>>>>>>>>>>>>>>>>>>>>>>>>>>>>",
">>>>>>>>>>>>>>:::::>>>>>>>>>>>>>>:>>>>>>>>>>>>>>>>>>>>>>>>>>>>>>",
">>>>>:::::::>>:::::>>>>>>>>>>>>::>>>>>>>>>>>>>>>>>>>>>>>>>>>>>>>",
">::::>>>>>>>>:>::::::>>>>>>>:::>>>>>>>>>>>>>>>>>>>>>>>>>>>>>>>>>",
">:>>>>>>>>>>>>::::::>:::>:::>>>>>>>>>>>>>>>>>>:::>>>>>>>>>>>>>>>",
">:>>>>>>>>>>>>:>::::>>>>>>>>>>>>>>>>>>>>>::::::::>>>>>>>>>>>>>>>",
">:>>>>>>>>>>>>:>::::>>>>>>>>>>>>>>>>>>::::::::::::>>>>>>>>>>>>>>",
">:>>>>>>>>>>>::>>:::>>>>>>>>>>>>>>>>>>>:::::::::::>>>>>>>>>>>>>>",
">:>>>>>>>>>>:>>>>>>>>>>>>>>>>>>>>>>>>>>>:::::::::::>>>>>>>>>>>>>",
">>:>>>>>>>::>>>>>>>>>>::>>>>>>>>>>>>>>>>>::::::::::>>>>>>>>>>>>>",
">>:>>>:::>>>>>>>>>>>>::>>>>>>>>>>>>>>>>>>>::::::::::>>>>>>>>>>>>",
">>:::>>>>>>>>>>>::::::>>>>>>>>>>>>>>>>>>>>>::::::::::>>>>>>>>>>>",
">>>>>>>>>>>>>>>>>>>>>>>>>:>>>>>>>>>>>>>>>>>>::::::::::>>>>>>>>>>",
">>>>>>>>>>>>>>>>>>>>>>>>::>>>>>>>>>>>>>>>>>>::::::::::::>>>>>>>>",
">>>>>>>>>>>>>>>>>>>>>:::>>>>>>>>>>>>>>>>>>>:::::::::::::::>>>>>>",
">>>>>>>>>>>>>>>>::::::>>>>>:>>>>>>>>>>>>>:::::::::::::::::::>>>>",
">>>>>>>>>>>>>>>>>>>>>>>>>::>>>>>>>>>>>>>:::::::::::::::::::>>>>>",
">>>>>>>>>>>>>>>>>>>>>>>:::>>>>>>>>>>>>>::::::::::::::::::::>>>>>",
">>>>>>>>>>>>>>>>::::::::>>>>>>>>>>>>>>:::::::::::::::::::::>>>>>",
">>>>>>>>>>>>>>>>>>>>>>>>>>>>>>>>>>>>>::::::::::::::::::::::>>>>>",
">>>>>>>>>>>>>>>>>>>>>>>>>>>>>>>>>>>>::::::::::::::>>:::::::>>>>>",
">>>>>>>>>>>>>>>>>>>>>>>>>>>>>>>>>>>::::::::::::::>>>>::::::>>>>>",
">>>>>>>>>>>>>>>>>>>>>>>>>>>>>>>>>>::::::::::::::>>>>>>::::>>>>>>",
">>>>>>>>>>>>>>>>>>>>>>>>>>>>>>>>>::::::::::::::>>>>>>>>:::>>>>>>",
">>>>>>>>>>>>>>>>>>>>>>>>>>>>>>>>::::::::::::::>>>>>>>>>>::>>>>>>",
">>>>>>>>>>>>>>>>>>>>>>>>>>>>>>>::::::::::::::>>>>>>>>>>>>:>>>>>>",
">>>>>>>>>>>>>>>>>>>>>>>>>>>>>>::::::::::::::>>>>>>>>>>>>>>>>>>>>",
">>>>>>>>>>>>>>>>>>>>>>>::::::::::::::::::::>>>>>>>>>>>>>>>>>>>>>",
">>>>>>>>>>>>>>>>>>>>>:::::::::::::::::::::>>>>>>>>>>>>>>>>>>>>>>",
">>>>>>>>>>>>>>>>>>>:::-#o  o@*:::::::::::>>>>>>>>>>>>>>>>>>>>>>>",
">>>>>>>>>>>>>>>>>>::;#        +;::::::::>>>>>>>>>>>>>>>>>>>>>>>>",
">>>>>>>>>>>>>>>>>::;o          X=::::::>>>>>>>>>>>>>>>>>>>>>>>>>",
">>>>>>>>>>>>>>>>>::O            o;::::>>>>>>>>>>>>>>>>>>>>>>>>>>",
">>>>>>>>>>>>>>>>::%              $:::>>>>>>>>>>>>>>>>>>>>>>>>>>>",
">>>>>>>>>>>>>>>>::X              .;:>>>>>>>>>>>>>>>>>>>>>>>>>>>>",
">>>>>>>>>>>>>>>>:=                &:>>>>>>>>>>>>>>>>>>>>>>>>>>>>",
">>>>>>>>>>>>>>>::%                $:>>>>>>>>>>>>>>>>>>>>>>>>>>>>",
">>>>>>>>>>>>>>>::$                @::>>>>>>>>>>>>>>>>>>>>>>>>>>>",
">>>>>>>>>>>>>>>::$                $:>>>>>>>>>>>>>>>>>>>>>>>>>>>>",
">>>>>>>>>>>>>>>>:*                &:>>>>>>>>>>>>>>>>>>>>>>>>>>>>",
">>>>>>>>>>>>>>>>::.               ;:>>>>>>>>>>>>>>>>>>>>>>>>>>>>",
">>>>>>>>>>>>>>>>::$              #::>>>>>>>>>>>>>>>>>>>>>>>>>>>>",
">>>>>>>>>>>>>>>>>::o            X;:>>>>>>>>>>>>>>>>>>>>>>>>>>>>>",
">>>>>>>>>>>>>>>>>::;o          .=::>>>>>>>>>>>>>>>>>>>>>>>>>>>>>",
">>>>>>>>>>>>>>>>>>::;+        O-::>>>>>>>>>>>>>>>>>>>>>>>>>>>>>>",
">>>>>>>>>>>>>>>>>>>:::*@X  .@*:::>>>>>>>>>>>>>>>>>>>>>>>>>>>>>>>",
">>>>>>>>>>>>>>>>>>>>::::::::::::>>>>>>>>>>>>>>>>>>>>>>>>>>>>>>>>",
">>>>>>>>>>>>>>>>>>>>>>>::::::>>>>>>>>>>>>>>>>>>>>>>>>>>>>>>>>>>>",
">>>>>>>>>>>>>>>>>>>>>>>>>>>>>>>>>>>>>>>>>>>>>>>>>>>>>>>>>>>>>>>>",
">>>>>>>>>>>>>>>>>>>>>>>>>>>>>>>>>>>>>>>>>>>>>>>>>>>>>>>>>>>>>>>>",
">>>>>>>>>>>>>>>>>>>>>>>>>>>>>>>>>>>>>>>>>>>>>>>>>>>>>>>>>>>>>>>>",
">>>>>>>>>>>>>>>>>>>>>>>>>>>>>>>>>>>>>>>>>>>>>>>>>>>>>>>>>>>>>>>>",
">>>>>>>>>>>>>>>>>>>>>>>>>>>>>>>>>>>>>>>>>>>>>>>>>>>>>>>>>>>>>>>>"
};
