/* XPM */
static char *selosmobj[] = {
/* columns rows colors chars-per-pixel */
"64 64 2 1",
"  c gray100",
". c None",
/* pixels */
"................................................................",
"................................................................",
"................................................................",
"................................................................",
"................................................................",
"................................................................",
"................................................................",
"................................................................",
"................................................................",
"................................................................",
"..........  ....................................................",
"..........      ................................................",
"...........        .............................................",
"...........           ..........................................",
"...........              .......................................",
"...........                  ...................................",
"............                    ................................",
"............                       .............................",
"............                           .........................",
".............                             ......................",
".............                                ...................",
".............                                    ...............",
"..............                                     .............",
"..............                                    ..............",
"..............                                  ................",
"...............                               ..................",
"...............                             ....................",
"...............                           ......................",
"...............                         ........................",
"................                       .........................",
"................                       .........................",
"................                        ........................",
".................                        .......................",
".................                         ......................",
".................                          .....................",
"..................                          ....................",
"..................                           ...................",
"..................                            ..................",
"..................                             .................",
"...................          ..                 ................",
"...................         ....                 ...............",
"...................         .....                 ..............",
"....................       .......                 .............",
"....................       ........                 ............",
"....................      ..........                 ...........",
".....................     ...........                 ..........",
".....................    .............                 .........",
".....................    ..............               ..........",
".....................   ................             ...........",
"......................  .................           ............",
"...................... ...................         .............",
"...........................................       ..............",
"............................................     ...............",
".............................................   ................",
".............................................. .................",
"................................................................",
"................................................................",
"................................................................",
"................................................................",
"................................................................",
"................................................................",
"................................................................",
"................................................................",
"................................................................"
};
