/* XPM */
static char *split_way[] = {
/* columns rows colors chars-per-pixel */
"64 64 3 1",
"  c #FF7D00",
". c gray100",
"X c None",
/* pixels */
"XXXXXXXXXXXXXXXXXXXXXXXXXXXXXXXXXXXXXXXXXXXXXXXXXXXXXXXXXXXXXXXX",
"XXXXXXXXXXXXXXXXXXXXXXXXXXXXXXXXXXXXXXXXXXXXXXXXXXXXXXXXXXXXXXXX",
"XXXXXXXXXXXXXXXXXXXXXXXXXXXXXXXXXXXXXXXXXXXXXXXXXXXXXXXXXXXXXXXX",
"XXXXXXX     XXXXXXXXXXXXXXXXXXXXXXXXXXXX   XXXXXXXXXXXXXXXXXXXXX",
"XXXXX         XXXXXXXXXXXXXXXXXXXXXXXX       XXXXXXXXXXXXXXXXXXX",
"XXXX           XXXXXXXXXXXXXXXXXXXXX           XXXXXXXXXXXXXXXXX",
"XXX    XXXXX    XXXXXXXXXXXXXXXXXXX     XXX    XXXXXXXXXXXXXXXXX",
"XXX   XXXXXXX   XXXXXXXXXXXXXXXXXXX   XXXXXXX   XXXXXXXXXXXXXXXX",
"XX   XXXXXXXXX  ...................  XXXXXXXX   XXXXXXXXXXXXXXXX",
"XX   XXXXXXXXX   .................   XXXXXXXXX   XXXXXXXXXXXXXXX",
"XX   XXXXXXXXX   .................   XXXXXXXXX   XXXXXXXXXXXXXXX",
"XX   XXXXXXXXX  ..................   XXXXXXXXX   XXXXXXXXXXXXXXX",
"XX   XXXXXXXX   XXXXXXXXXXXXXXXXXX   XXXXXXXXX  XXXXXXXXXXXXXXXX",
"XXX   XXXXXXX   XXXXXXXXXXXXXXXXXXX   XXXXXXX   XXXXXXXXXXXXXXXX",
"XXX    XXXX    XXXXXXXXXXXXXXXXXXXX    XXXXX    XXXXXXXXXXXXXXXX",
"XXXX           XXXXXXXXXXXXXXXXXXXXX           XXXXXXXXXXXXXXXXX",
"XXXXX        XXXXXXXXXXXXXXXXXXXXXXXX         XXXXXXXXXXXXXXXXXX",
"XXXXXXXX  XXXXXXXXXXXXXXXXXXXXXXXXXXXXX     ..XXXXXXXXXXXXXXXXXX",
"XXXXXXXXXXXXXXXXXXXXXXXXXXXXXXXXXXXXXXXXXXX....XXXXXXXXXXXXXXXXX",
"XXXXXXXXXXXXXXXXXXXXXXXXXXXXXXXXXXXXXXXXXXX....XXXXXXXXXXXXXXXXX",
"XXXXXXXXXXXXXXXXXXXXXXXXXXXXXXXXXXXXXXXXXXX....XXXX  XXXXXXXXXXX",
"XXXXXXXXXXXXXXXXXXXXXXXXXXXXXXXXXXXXXXXXXXXX....X   XXXXXXXXXXXX",
"XXXXXXXXXXXXXXXXXXXXXXXXXXXXXXXXXXXXXXXXXXXX....   XXXXXXXXXXXXX",
"XXXXXXXXXXXXXXXXXXXXXXXXXXXXXXXXXXXXXXXXXXXX....  XXXXXXXXXXXXXX",
"XXXXXXXXXXXXXXXXXXXXXXXXXXXXXXXXXXXXXXXXXXX  ....XXXXXXXXXXXXXXX",
"XXXXXXXXXXXXXXXXXXXXXXXXXXXXXXXXXXXXXXXXXX   ....XXXXXXXXXXXXXXX",
"XXXXXXXXXXXXXXXXXXXXXXXXXXXXXXXXXXXXXXXX     ....XXXXXXXXXXXXXXX",
"XXXXXXXXXXXXXXXXXXXXXXXXXXXXXXXXXXXXXX        ....XXXXXXXXXXXXXX",
"XXXXXXXXXXXXXXXXXXXXXXXXXXXXXXXXXXXXX        X....XXXXXXXXXXXXXX",
"XXXXXXXXXXXXX        XXXXXXXXXXXXXXX        XX....XXXXXXXXXXXXXX",
"XXXXXXXXXX             XXXXXXXXXXXXX       XXXX....XXXXXXXXXXXXX",
"XXXXXXXXX       X       XXXXXXXXXXX       XXXXX....XXXXXXXXXXXXX",
"XXXXXXXXX   XXXXXXXXX    XXXXXXXXX       XXXXXX....XXXXXXXXXXXXX",
"XXXXXXXX   XXXXXXXXXXX   XXXXXXXXX      XXXXXXXX..        XXXXXX",
"XXXXXXXX   XXXXXXXXXXXX   XXXXXXX                       XXXXXXXX",
"XXXXXXXX   XXXXXXXXXXX                               XXXXXXXXXXX",
"XXXXXXXXX    XXXXXXXX                              ..XXXXXXXXXXX",
"XXXXXXXXX                                       X....XXXXXXXXXXX",
"XXXXXXXXXX             XXX                    XXX....XXXXXXXXXXX",
"XXXXXXXXXXXXX        XXXXXXXXX    X        XXXXXXX....XXXXXXXXXX",
"XXXXXXXXXXXXXXXXXXXXXXXXXXXXX    XXXXXXXXXXXXXXXXX....XXXXXXXXXX",
"XXXXXXXXXXXXXXXXXXXXXXXXXXXX    XXXXXXXXXXXXXXXXXX.      XXXXXXX",
"XXXXXXXXXXXXXXXXXXXXXXXXX      XXXXXXXXXXXXXXXXXXX         XXXXX",
"XXXXXXXXXXXXXXXXXXXXXX         XXXXXXXXXXXXXXXXXX           XXXX",
"XXXXXXXXXXXXXXXXXXXXX           XXXXXXXXXXXXXXXX    XXXXX    XXX",
"XXXXXXXXXXXXXXXXXXXX    XXXXX   XXXXXXXXXXXXXXX    XXXXXXX   XXX",
"XXXXXXXXXXXXXXXXXXX    XXXXXX   XXXXXXXXXXXXXXX   XXXXXXXXX  XXX",
"XXXXXXXXXXXXXXXXXX    XXXXXXX   XXXXXXXXXXXXXXX   XXXXXXXXX   XX",
"XXXXXXXXXXXXXXXXXX   XXXXXXXX   XXXXXXXXXXXXXXX   XXXXXXXXX   XX",
"XXXXXXXXXXXXXXXXX   XXXXXXXX   XXXXXXXXXXXXXXXX   XXXXXXXXX  XXX",
"XXXXXXXXXXXXXXXXX   XXXXXXX    XXXXXXXXXXXXXXXX   XXXXXXXX   XXX",
"XXXXXXXXXXXXXXXXX   XXXXXX    XXXXXXXXXXXXXXXXXX   XXXXXX    XXX",
"XXXXXXXXXXXXXXXXX   XXXX     XXXXXXXXXXXXXXXXXXX     XXX    XXXX",
"XXXXXXXXXXXXXXXXX           XXXXXXXXXXXXXXXXXXXXX          XXXXX",
"XXXXXXXXXXXXXXXXX         XXXXXXXXXXXXXXXXXXXXXXXXX       XXXXXX",
"XXXXXXXXXXXXXXXXXXX     XXXXXXXXXXXXXXXXXXXXXXXXXXXXXXXXXXXXXXXX",
"XXXXXXXXXXXXXXXXXXXXXXXXXXXXXXXXXXXXXXXXXXXXXXXXXXXXXXXXXXXXXXXX",
"XXXXXXXXXXXXXXXXXXXXXXXXXXXXXXXXXXXXXXXXXXXXXXXXXXXXXXXXXXXXXXXX",
"XXXXXXXXXXXXXXXXXXXXXXXXXXXXXXXXXXXXXXXXXXXXXXXXXXXXXXXXXXXXXXXX",
"XXXXXXXXXXXXXXXXXXXXXXXXXXXXXXXXXXXXXXXXXXXXXXXXXXXXXXXXXXXXXXXX",
"XXXXXXXXXXXXXXXXXXXXXXXXXXXXXXXXXXXXXXXXXXXXXXXXXXXXXXXXXXXXXXXX",
"XXXXXXXXXXXXXXXXXXXXXXXXXXXXXXXXXXXXXXXXXXXXXXXXXXXXXXXXXXXXXXXX",
"XXXXXXXXXXXXXXXXXXXXXXXXXXXXXXXXXXXXXXXXXXXXXXXXXXXXXXXXXXXXXXXX",
"XXXXXXXXXXXXXXXXXXXXXXXXXXXXXXXXXXXXXXXXXXXXXXXXXXXXXXXXXXXXXXXX"
};
