/* XPM */
static char *start_route[] = {
/* columns rows colors chars-per-pixel */
"64 64 16 1",
"  c #FF7D00",
". c #FF8510",
"X c #FF8D20",
"o c #FF9530",
"O c #FF9E40",
"+ c #FFAE60",
"@ c #FFB670",
"# c #FFBE80",
"$ c #FFCE9F",
"% c #FFD6AF",
"& c #FFDFBF",
"* c #FFE7CF",
"= c #FFEFDF",
"- c #FFF7EF",
"; c gray100",
": c None",
/* pixels */
"::::::::::::::::::::::::::::::::::::::::::::::::::::::::::::::::",
"::::::::::::::::::::::::::::::::::::::::::::::::::::::::::::::::",
"::::::::::::::::::::::::::::::::::::::::::::::::::::::::::::::::",
"::::::::::::::::::::::::::::::::::::::::::::::::::::::::::::::::",
"::::::::::::::::::::::::::::::::::::::::::::::::::::::::::::::::",
"::::::::::::::::::::::::::::::::::::::::::::::::::::::::::::::::",
"::::::::::::::::::::::::::::::::::::::::::::::::::::::::::::::::",
"::::::::::::::::::::::::::::::::::::::::::::::::::::::::::::::::",
"::::::::::::::::::::::::::::::::::::::::::::::::::::::::::::::::",
"::::::::::::::::::::::::::::::::::::::::::::::::::::::::::::::::",
"::::::::::::::::::::::::::::::::::::::::::::::::::::::::::::::::",
"::::::::::::::::::::::::::::::::::::::::::::::::::::::::::::::::",
"::::::::::::::::::::::::::::::::::::;:::::::::::::::::::::::::::",
"::::::::::::::::::::::::::::::;;;;;;;;::::::::::::::::::::::::::",
":::::::::::::::::::::::::::::::;;;;;;;;:::::::::::::::::::::::::",
"::::::::::::::::::::::::::::::::;;;;;;;;::::::::::::::::::::::::",
":::::::::::::::::::::::::::::::::;;;;;;;;:::::::::::::::::::::::",
"::::::::::::::::::::::::::::::::::;;;;;;;;::::::::::::::::::::::",
":::::::::::::::::::::::::::::::::::;;;;;;;;:::::::::::::::::::::",
"::::::::::::::::::::::::::::::::::::;;;;;;;;::::::::::::::::::::",
"::::::::::::::::::::::::::::::::::::;;;;;;;;;:::::::::::::::::::",
":::::::::::::::::::::::::::::::::::;;;;;;;;;;;::::::::::::::::::",
"::::::::::::::::::::::::::::::::::;;;;;;;;;;;;;:::::::::::::::::",
":::::::::::::::::::::::::::::::::;;;;;;;;;;;;;;;::::::::::::::::",
"::::::::::::::::::::::::::::::::;;;;;;;;;;;;;;;;;:::::::::::::::",
":::::::::::::::::::::::::::::::;;;;;;;;;;;;;;;;;;;::::::::::::::",
"::::::::::::::::::::::::::::::;;;;;;;;;;;;;;;;;;;;;:::::::::::::",
":::::::::::::::::::::::::::::;;;;;;;;;;;;;;;;;;;;;;;::::::::::::",
"::::::::::::::::::::::::::::;;;;;;;;;;;;;;;::;;;;;;:::::::::::::",
":::::::::::::::::::::::::::;;;;;;;;;;;;;;;::::;;;;;:::::::::::::",
"::::::::::::::::::::::::::;;;;;;;;;;;;;;;::::::;;;;:::::::::::::",
":::::::::::::::::::::::::;;;;;;;;;;;;;;;::::::::;;;:::::::::::::",
"::::::::::::::::::::::::;;;;;;;;;;;;;;;::::::::::;;:::::::::::::",
":::::::::::::::::::::::;;;;;;;;;;;;;;;::::::::::::;:::::::::::::",
"::::::::::::::::::::::;;;;;;;;;;;;;;;:::::::::::::::::::::::::::",
":::::::::::::::;;;;;:;;;;;;;;;;;;;;;::::::::::::::::::::::::::::",
":::::::::::::;;;;;;;;;;;;;;;;;;;;;;:::::::::::::::::::::::::::::",
":::::::::::;;;-$+OO@%;;;;;;;;;;;;;::::::::::::::::::::::::::::::",
"::::::::::;;-#.      X%;;;;;;;;;;:::::::::::::::::::::::::::::::",
":::::::::;;-o          +;;;;;;;;::::::::::::::::::::::::::::::::",
"::::::::;;-o            +;;;;;;:::::::::::::::::::::::::::::::::",
"::::::::;;+              %;;;;::::::::::::::::::::::::::::::::::",
"::::::::;=               X;;;:::::::::::::::::::::::::::::::::::",
":::::::;;@                %;::::::::::::::::::::::::::::::::::::",
":::::::;;o                #;;:::::::::::::::::::::::::::::::::::",
":::::::;;                 O;;:::::::::::::::::::::::::::::::::::",
":::::::;;                 O;;:::::::::::::::::::::::::::::::::::",
":::::::;;X                @;;:::::::::::::::::::::::::::::::::::",
":::::::;;+                $;;:::::::::::::::::::::::::::::::::::",
"::::::::;&               .-;::::::::::::::::::::::::::::::::::::",
"::::::::;;O              #;;::::::::::::::::::::::::::::::::::::",
"::::::::;;*.            o;;:::::::::::::::::::::::::::::::::::::",
":::::::::;;*.          o-;;:::::::::::::::::::::::::::::::::::::",
"::::::::::;;*O        +-;;::::::::::::::::::::::::::::::::::::::",
":::::::::::;;;&+X  o@=;;;:::::::::::::::::::::::::::::::::::::::",
"::::::::::::;;;;;;;;;;;;::::::::::::::::::::::::::::::::::::::::",
"::::::::::::::;;;;;;;:::::::::::::::::::::::::::::::::::::::::::",
"::::::::::::::::::::::::::::::::::::::::::::::::::::::::::::::::",
"::::::::::::::::::::::::::::::::::::::::::::::::::::::::::::::::",
"::::::::::::::::::::::::::::::::::::::::::::::::::::::::::::::::",
"::::::::::::::::::::::::::::::::::::::::::::::::::::::::::::::::",
"::::::::::::::::::::::::::::::::::::::::::::::::::::::::::::::::",
"::::::::::::::::::::::::::::::::::::::::::::::::::::::::::::::::",
"::::::::::::::::::::::::::::::::::::::::::::::::::::::::::::::::"
};
