/* XPM */
static char *zoomin[] = {
/* columns rows colors chars-per-pixel */
"64 64 115 2",
"   c #161516",
".  c #161616",
"X  c gray9",
"o  c #181818",
"O  c gray10",
"+  c #1B1B1B",
"@  c gray11",
"#  c #1E1E1E",
"$  c #202020",
"%  c gray13",
"&  c #232323",
"*  c gray14",
"=  c #252525",
"-  c #272727",
";  c #2A2A2A",
":  c #2B2B2A",
">  c #2C2C2C",
",  c #2D2D2D",
"<  c gray18",
"1  c #303031",
"2  c gray46",
"3  c #777676",
"4  c gray47",
"5  c #797979",
"6  c gray48",
"7  c #7B7B7B",
"8  c #7B7B7C",
"9  c #7C7C7C",
"0  c #7D7E7E",
"q  c #7E7E7E",
"w  c #FF7D00",
"e  c #807F7F",
"r  c #818181",
"t  c gray51",
"y  c #838383",
"u  c #858485",
"i  c #868686",
"p  c #888888",
"a  c #898989",
"s  c #8A8989",
"d  c gray54",
"f  c #8B8B8B",
"g  c #8C8C8B",
"h  c gray55",
"j  c #8D8C8C",
"k  c #8E8D8D",
"l  c #8F8F8E",
"z  c gray56",
"x  c #90908F",
"c  c #909090",
"v  c gray57",
"b  c #939393",
"n  c #959595",
"m  c gray59",
"M  c #979797",
"N  c #989899",
"B  c #9A9A9A",
"V  c #9C9C9B",
"C  c #9D9D9D",
"Z  c gray62",
"A  c #9F9F9F",
"S  c gray63",
"D  c #A2A2A2",
"F  c gray64",
"G  c #A5A4A4",
"H  c #A5A4A5",
"J  c #A6A5A5",
"K  c #C4C3C3",
"L  c gray85",
"P  c #DCDCDB",
"I  c gainsboro",
"U  c #DDDDDC",
"Y  c #DDDDDD",
"T  c #DDDDDE",
"R  c gray87",
"E  c #DEDEDF",
"W  c #DFDFDF",
"Q  c gray88",
"!  c #E1E1E1",
"~  c #E2E1E1",
"^  c #E2E2E2",
"/  c gray89",
"(  c #E4E4E4",
")  c #E4E5E5",
"_  c gray90",
"`  c #E5E6E5",
"'  c #E5E5E6",
"]  c #E6E6E6",
"[  c #E6E6E7",
"{  c #E7E7E7",
"}  c #E8E8E7",
"|  c gray91",
" . c #E9E9E8",
".. c #E9E9E9",
"X. c #E9EAEA",
"o. c #EAEAEA",
"O. c gray92",
"+. c #ECECEC",
"@. c #ECEDEC",
"#. c gray93",
"$. c #EDEEED",
"%. c gray94",
"&. c #F9F9F9",
"*. c #FBFBFA",
"=. c #FBFBFB",
"-. c #FBFCFB",
";. c #FBFCFC",
":. c gray99",
">. c #FCFDFC",
",. c #FDFDFD",
"<. c #FDFEFD",
"1. c #FDFEFE",
"2. c #FEFEFE",
"3. c gray100",
"4. c None",
/* pixels */
"4.4.4.4.4.4.4.4.4.4.4.4.4.4.4.4.4.4.4.4.4.4.4.4.4.4.4.4.4.4.4.4.4.4.4.4.4.4.4.4.4.4.4.4.4.4.4.4.4.4.4.4.4.4.4.4.4.4.4.4.4.4.4.4.",
"4.4.4.4.4.4.4.4.4.4.4.4.4.4.4.4.4.3.3.3.3.3.3.3.3.3.4.4.4.4.4.4.4.4.4.4.4.4.4.4.4.4.4.4.4.4.4.4.4.4.4.4.4.4.4.4.4.4.4.4.4.4.4.4.",
"4.4.4.4.4.4.4.4.4.4.4.4.4.4.3.3.3.3.3.3.3.3.3.3.3.3.3.3.3.4.4.4.4.4.4.4.4.4.4.4.4.4.4.4.4.4.4.4.4.4.4.4.4.4.4.4.4.4.4.4.4.4.4.4.",
"4.4.4.4.4.4.4.4.4.4.4.4.3.3.3.3.3.3.3.3.3.3.3.3.3.3.3.3.3.3.3.3.4.4.4.4.4.4.4.4.4.4.4.4.4.4.4.4.4.4.4.4.4.4.4.4.4.4.4.4.4.4.4.4.",
"4.4.4.4.4.4.4.4.4.4.3.3.3.3.3.3.3.3.3.3.3.3.3.3.3.3.3.3.3.3.3.3.3.4.4.4.4.4.4.4.4.4.4.4.4.4.4.4.4.4.4.4.4.4.4.4.4.4.4.4.4.4.4.4.",
"4.4.4.4.4.4.4.4.4.3.3.3.3.3.3.3.3.3.3.3.3.3.3.3.3.3.3.3.3.3.3.3.3.3.4.4.4.4.4.4.4.4.4.4.4.4.4.4.4.4.4.4.4.4.4.4.4.4.4.4.4.4.4.4.",
"4.4.4.4.4.4.4.4.3.3.3.3.3.3.3.3.3.4.4.4.4.4.4.4.4.4.4.3.3.3.3.3.3.3.3.3.4.4.4.4.4.4.4.4.4.4.4.4.4.4.4.4.4.4.4.4.4.4.4.4.4.4.4.4.",
"4.4.4.4.4.4.4.3.3.3.3.3.3.3.3.4.4.4.4.4.4.4.4.4.4.4.4.4.4.3.3.3.3.3.3.3.3.4.4.4.4.4.4.4.4.4.4.4.4.4.4.4.4.4.4.4.4.4.4.4.4.4.4.4.",
"4.4.4.4.4.4.3.3.3.3.3.3.3.4.4.4.4.4.4.4.4.4.4.4.4.4.4.4.4.4.4.3.3.3.3.3.3.4.4.4.4.4.4.4.4.4.4.4.4.4.4.4.4.4.4.4.4.4.4.4.4.4.4.4.",
"4.4.4.4.4.3.3.3.3.3.3.3.4.4.4.4.4.4.4.4.4.4.4.4.4.4.4.4.4.4.4.4.3.3.3.3.3.3.4.4.4.4.4.4.4.4.4.4.4.4.4.4.4.4.4.4.4.4.4.4.4.4.4.4.",
"4.4.4.4.4.3.3.3.3.3.3.4.4.4.4.4.4.4.4.4.w w w w 4.4.4.4.4.4.4.4.4.3.3.3.3.3.3.4.4.4.4.4.4.4.4.4.4.4.4.4.4.4.4.4.4.4.4.4.4.4.4.4.",
"4.4.4.4.3.3.3.3.3.3.4.4.4.4.4.4.4.4.4.4.w w w w 4.4.4.4.4.4.4.4.4.4.3.3.3.3.3.4.4.4.4.4.4.4.4.4.4.4.4.4.4.4.4.4.4.4.4.4.4.4.4.4.",
"4.4.4.4.3.3.3.3.3.4.4.4.4.4.4.4.4.4.4.4.w w w w 4.4.4.4.4.4.4.4.4.4.4.3.3.3.3.3.4.4.4.4.4.4.4.4.4.4.4.4.4.4.4.4.4.4.4.4.4.4.4.4.",
"4.4.4.3.3.3.3.3.4.4.4.4.4.4.4.4.4.4.4.4.w w w w 4.4.4.4.4.4.4.4.4.4.4.3.3.3.3.3.4.4.4.4.4.4.4.4.4.4.4.4.4.4.4.4.4.4.4.4.4.4.4.4.",
"4.4.4.3.3.3.3.3.4.4.4.4.4.4.4.4.4.4.4.4.w w w w 4.4.4.4.4.4.4.4.4.4.4.4.3.3.3.3.3.4.4.4.4.4.4.4.4.4.4.4.4.4.4.4.4.4.4.4.4.4.4.4.",
"4.4.4.3.3.3.3.4.4.4.4.4.4.4.4.4.4.4.4.4.w w w w 4.4.4.4.4.4.4.4.4.4.4.4.3.3.3.3.3.4.4.4.4.4.4.4.4.4.4.4.4.4.4.4.4.4.4.4.4.4.4.4.",
"4.4.3.3.3.3.3.4.4.4.4.4.4.4.4.4.4.4.4.4.w w w w 4.4.4.4.4.4.4.4.4.4.4.4.3.3.3.3.3.4.4.4.4.4.4.4.4.4.4.4.4.4.4.4.4.4.4.4.4.4.4.4.",
"4.4.3.3.3.3.3.4.4.4.4.4.4.4.4.4.4.4.4.4.w w w w 4.4.4.4.4.4.4.4.4.4.4.4.4.3.3.3.3.3.4.4.4.4.4.4.4.4.4.4.4.4.4.4.4.4.4.4.4.4.4.4.",
"4.4.3.3.3.3.3.4.4.4.4.4.4.4.4.4.4.4.4.4.w w w w 4.4.4.4.4.4.4.4.4.4.4.4.4.3.3.3.3.3.4.4.4.4.4.4.4.4.4.4.4.4.4.4.4.4.4.4.4.4.4.4.",
"4.4.3.3.3.3.3.4.4.4.4.w w w w w w w w w w w w w w w w w w w w w 4.4.4.4.4.3.3.3.3.3.4.4.4.4.4.4.4.4.4.4.4.4.4.4.4.4.4.4.4.4.4.4.",
"4.4.3.3.3.3.3.4.4.4.4.w w w w w w w w w w w w w w w w w w w w w 4.4.4.4.4.3.3.3.3.3.4.4.4.4.4.4.4.4.4.4.4.4.4.4.4.4.4.4.4.4.4.4.",
"4.4.3.3.3.3.3.4.4.4.4.w w w w w w w w w w w w w w w w w w w w w 4.4.4.4.4.3.3.3.3.3.4.4.4.4.4.4.4.4.4.4.4.4.4.4.4.4.4.4.4.4.4.4.",
"4.4.3.3.3.3.3.4.4.4.4.4.w w w w w w w w w w w w w w w w w w w w 4.4.4.4.4.3.3.3.3.3.4.4.4.4.4.4.4.4.4.4.4.4.4.4.4.4.4.4.4.4.4.4.",
"4.4.3.3.3.3.3.4.4.4.4.4.4.4.4.4.4.4.4.4.w w w w 4.4.4.4.4.4.4.4.4.4.4.4.4.3.3.3.3.3.4.4.4.4.4.4.4.4.4.4.4.4.4.4.4.4.4.4.4.4.4.4.",
"4.4.3.3.3.3.3.4.4.4.4.4.4.4.4.4.4.4.4.4.w w w w 4.4.4.4.4.4.4.4.4.4.4.4.4.3.3.3.3.4.4.4.4.4.4.4.4.4.4.4.4.4.4.4.4.4.4.4.4.4.4.4.",
"4.4.3.3.3.3.3.4.4.4.4.4.4.4.4.4.4.4.4.4.w w w w 4.4.4.4.4.4.4.4.4.4.4.4.3.3.3.3.3.4.4.4.4.4.4.4.4.4.4.4.4.4.4.4.4.4.4.4.4.4.4.4.",
"4.4.4.3.3.3.3.3.4.4.4.4.4.4.4.4.4.4.4.4.w w w w 4.4.4.4.4.4.4.4.4.4.4.4.3.3.3.3.3.4.4.4.4.4.4.4.4.4.4.4.4.4.4.4.4.4.4.4.4.4.4.4.",
"4.4.4.3.3.3.3.3.4.4.4.4.4.4.4.4.4.4.4.4.w w w w 4.4.4.4.4.4.4.4.4.4.4.3.3.3.3.3.3.4.4.4.4.4.4.4.4.4.4.4.4.4.4.4.4.4.4.4.4.4.4.4.",
"4.4.4.3.3.3.3.3.3.4.4.4.4.4.4.4.4.4.4.4.w w w w 4.4.4.4.4.4.4.4.4.4.4.3.3.3.3.3.4.4.4.4.4.4.4.4.4.4.4.4.4.4.4.4.4.4.4.4.4.4.4.4.",
"4.4.4.4.3.3.3.3.3.4.4.4.4.4.4.4.4.4.4.4.w w w w 4.4.4.4.4.4.4.4.4.4.3.3.3.3.3.3.4.4.4.4.4.4.4.4.4.4.4.4.4.4.4.4.4.4.4.4.4.4.4.4.",
"4.4.4.4.3.3.3.3.3.3.4.4.4.4.4.4.4.4.4.4.w w w w 4.4.4.4.4.4.4.4.4.3.3.3.3.3.3.4.4.4.4.4.4.4.4.4.4.4.4.4.4.4.4.4.4.4.4.4.4.4.4.4.",
"4.4.4.4.4.3.3.3.3.3.3.4.4.4.4.4.4.4.4.4.4.4.4.4.4.4.4.4.4.4.4.4.4.3.3.3.3.3.K 4.4.4.4.4.4.4.4.4.4.4.4.4.4.4.4.4.4.4.4.4.4.4.4.4.",
"4.4.4.4.4.4.3.3.3.3.3.3.4.4.4.4.4.4.4.4.4.4.4.4.4.4.4.4.4.4.4.3.3.3.3.3.3.3.` p   4.4.4.4.4.4.4.4.4.4.4.4.4.4.4.4.4.4.4.4.4.4.4.",
"4.4.4.4.4.4.3.3.3.3.3.3.3.3.4.4.4.4.4.4.4.4.4.4.4.4.4.4.4.4.3.3.3.3.3.3.3.3.>.) s . 4.4.4.4.4.4.4.4.4.4.4.4.4.4.4.4.4.4.4.4.4.4.",
"4.4.4.4.4.4.4.3.3.3.3.3.3.3.3.4.4.4.4.4.4.4.4.4.4.4.4.4.3.3.3.3.3.3.3.3.3.3.3.>.) f X 4.4.4.4.4.4.4.4.4.4.4.4.4.4.4.4.4.4.4.4.4.",
"4.4.4.4.4.4.4.4.3.3.3.3.3.3.3.3.3.3.4.4.4.4.4.4.4.3.3.3.3.3.3.3.3.3.3.3.3.3.3.3.>._ h X 4.4.4.4.4.4.4.4.4.4.4.4.4.4.4.4.4.4.4.4.",
"4.4.4.4.4.4.4.4.4.4.3.3.3.3.3.3.3.3.3.3.3.3.3.3.3.3.3.3.3.3.3.3.3.3.3.3.3.3.3.3.3.,.] k o 4.4.4.4.4.4.4.4.4.4.4.4.4.4.4.4.4.4.4.",
"4.4.4.4.4.4.4.4.4.4.4.3.3.3.3.3.3.3.3.3.3.3.3.3.3.3.3.3.3.3.3.&.%.,.3.3.3.3.3.3.3.3.,.[ z o 4.4.4.4.4.4.4.4.4.4.4.4.4.4.4.4.4.4.",
"4.4.4.4.4.4.4.4.4.4.4.4.4.3.3.3.3.3.3.3.3.3.3.3.3.3.3.3.3.3.3.4.x [ ,.3.3.3.3.3.3.3.3.,.{ c O 4.4.4.4.4.4.4.4.4.4.4.4.4.4.4.4.4.",
"4.4.4.4.4.4.4.4.4.4.4.4.4.4.4.3.3.3.3.3.3.3.3.3.3.3.3.3.4.4.4.4.4.l ] ,.3.3.3.3.3.3.3.3.,.{ v + 4.4.4.4.4.4.4.4.4.4.4.4.4.4.4.4.",
"4.4.4.4.4.4.4.4.4.4.4.4.4.4.4.4.4.4.4.4.3.3.3.3.4.4.4.4.4.4.4.4.4.4.j ' ,.3.3.3.3.3.3.3.3.,.} b @ 4.4.4.4.4.4.4.4.4.4.4.4.4.4.4.",
"4.4.4.4.4.4.4.4.4.4.4.4.4.4.4.4.4.4.4.4.4.4.4.4.4.4.4.4.4.4.4.4.4.4.4.g _ >.3.3.3.3.3.3.3.3.,.| n # 4.4.4.4.4.4.4.4.4.4.4.4.4.4.",
"4.4.4.4.4.4.4.4.4.4.4.4.4.4.4.4.4.4.4.4.4.4.4.4.4.4.4.4.4.4.4.4.4.4.4.4.d ) >.3.3.3.3.3.3.3.3.,. .m $ 4.4.4.4.4.4.4.4.4.4.4.4.4.",
"4.4.4.4.4.4.4.4.4.4.4.4.4.4.4.4.4.4.4.4.4.4.4.4.4.4.4.4.4.4.4.4.4.4.4.4.4.a ( :.3.3.3.3.3.3.3.3.,. .M % 4.4.4.4.4.4.4.4.4.4.4.4.",
"4.4.4.4.4.4.4.4.4.4.4.4.4.4.4.4.4.4.4.4.4.4.4.4.4.4.4.4.4.4.4.4.4.4.4.4.4.4.p ( :.3.3.3.3.3.3.3.3.,...N & 4.4.4.4.4.4.4.4.4.4.4.",
"4.4.4.4.4.4.4.4.4.4.4.4.4.4.4.4.4.4.4.4.4.4.4.4.4.4.4.4.4.4.4.4.4.4.4.4.4.4.4.i / :.3.3.3.3.3.3.3.3.,.X.B * 4.4.4.4.4.4.4.4.4.4.",
"4.4.4.4.4.4.4.4.4.4.4.4.4.4.4.4.4.4.4.4.4.4.4.4.4.4.4.4.4.4.4.4.4.4.4.4.4.4.4.4.u / :.3.3.3.3.3.3.3.3.,.o.V = 4.4.4.4.4.4.4.4.4.",
"4.4.4.4.4.4.4.4.4.4.4.4.4.4.4.4.4.4.4.4.4.4.4.4.4.4.4.4.4.4.4.4.4.4.4.4.4.4.4.4.4.y ^ :.3.3.3.3.3.3.3.3.,.o.C - 4.4.4.4.4.4.4.4.",
"4.4.4.4.4.4.4.4.4.4.4.4.4.4.4.4.4.4.4.4.4.4.4.4.4.4.4.4.4.4.4.4.4.4.4.4.4.4.4.4.4.4.t ^ :.3.3.3.3.3.3.3.3.<.O.Z - 4.4.4.4.4.4.4.",
"4.4.4.4.4.4.4.4.4.4.4.4.4.4.4.4.4.4.4.4.4.4.4.4.4.4.4.4.4.4.4.4.4.4.4.4.4.4.4.4.4.4.4.r ~ :.3.3.3.3.3.3.3.3.1.O.A ; 4.4.4.4.4.4.",
"4.4.4.4.4.4.4.4.4.4.4.4.4.4.4.4.4.4.4.4.4.4.4.4.4.4.4.4.4.4.4.4.4.4.4.4.4.4.4.4.4.4.4.4.e ! :.3.3.3.3.3.3.3.3.1.+.S : 4.4.4.4.4.",
"4.4.4.4.4.4.4.4.4.4.4.4.4.4.4.4.4.4.4.4.4.4.4.4.4.4.4.4.4.4.4.4.4.4.4.4.4.4.4.4.4.4.4.4.4.0 Q ;.3.3.3.3.3.3.3.3.2.+.D > 4.4.4.4.",
"4.4.4.4.4.4.4.4.4.4.4.4.4.4.4.4.4.4.4.4.4.4.4.4.4.4.4.4.4.4.4.4.4.4.4.4.4.4.4.4.4.4.4.4.4.4.9 Q ;.3.3.3.3.3.3.3.3.2.@.F , 4.4.4.",
"4.4.4.4.4.4.4.4.4.4.4.4.4.4.4.4.4.4.4.4.4.4.4.4.4.4.4.4.4.4.4.4.4.4.4.4.4.4.4.4.4.4.4.4.4.4.4.7 W -.3.3.3.3.3.3.3.3.2.#.G < 4.4.",
"4.4.4.4.4.4.4.4.4.4.4.4.4.4.4.4.4.4.4.4.4.4.4.4.4.4.4.4.4.4.4.4.4.4.4.4.4.4.4.4.4.4.4.4.4.4.4.4.5 E =.3.3.3.3.3.3.3.3.2.#.J 1 4.",
"4.4.4.4.4.4.4.4.4.4.4.4.4.4.4.4.4.4.4.4.4.4.4.4.4.4.4.4.4.4.4.4.4.4.4.4.4.4.4.4.4.4.4.4.4.4.4.4.4.4 R =.3.3.3.3.3.3.3.3.2.$.H 4.",
"4.4.4.4.4.4.4.4.4.4.4.4.4.4.4.4.4.4.4.4.4.4.4.4.4.4.4.4.4.4.4.4.4.4.4.4.4.4.4.4.4.4.4.4.4.4.4.4.4.4.q T =.3.3.3.3.3.3.3.3.2.4.4.",
"4.4.4.4.4.4.4.4.4.4.4.4.4.4.4.4.4.4.4.4.4.4.4.4.4.4.4.4.4.4.4.4.4.4.4.4.4.4.4.4.4.4.4.4.4.4.4.4.4.4.4.8 Y =.3.3.3.3.3.3.3.4.4.4.",
"4.4.4.4.4.4.4.4.4.4.4.4.4.4.4.4.4.4.4.4.4.4.4.4.4.4.4.4.4.4.4.4.4.4.4.4.4.4.4.4.4.4.4.4.4.4.4.4.4.4.4.4.6 U =.3.3.3.3.3.4.4.4.4.",
"4.4.4.4.4.4.4.4.4.4.4.4.4.4.4.4.4.4.4.4.4.4.4.4.4.4.4.4.4.4.4.4.4.4.4.4.4.4.4.4.4.4.4.4.4.4.4.4.4.4.4.4.4.4 I =.3.3.3.4.4.4.4.4.",
"4.4.4.4.4.4.4.4.4.4.4.4.4.4.4.4.4.4.4.4.4.4.4.4.4.4.4.4.4.4.4.4.4.4.4.4.4.4.4.4.4.4.4.4.4.4.4.4.4.4.4.4.4.4.3 P *.3.4.4.4.4.4.4.",
"4.4.4.4.4.4.4.4.4.4.4.4.4.4.4.4.4.4.4.4.4.4.4.4.4.4.4.4.4.4.4.4.4.4.4.4.4.4.4.4.4.4.4.4.4.4.4.4.4.4.4.4.4.4.4.2 L 4.4.4.4.4.4.4.",
"4.4.4.4.4.4.4.4.4.4.4.4.4.4.4.4.4.4.4.4.4.4.4.4.4.4.4.4.4.4.4.4.4.4.4.4.4.4.4.4.4.4.4.4.4.4.4.4.4.4.4.4.4.4.4.4.4.4.4.4.4.4.4.4.",
"4.4.4.4.4.4.4.4.4.4.4.4.4.4.4.4.4.4.4.4.4.4.4.4.4.4.4.4.4.4.4.4.4.4.4.4.4.4.4.4.4.4.4.4.4.4.4.4.4.4.4.4.4.4.4.4.4.4.4.4.4.4.4.4."
};
